PathFileType	3	(X/Y/Z)	C:\Users\koon_\Desktop\
DataRate	CameraRate	NumFrames	NumMarkers	Units	OrigDataRate	OrigDataStartFrame	OrigNumFrames
100.0	100.0	14	27	mm	100.0	629	5024	
Frame#	Time	get:LFHD			get:RFHD			get:LBHD			get:RBHD			get:C7			get:T10			get:CLAV			get:STRN			get:RBAK			get:LSHO			get:LUPA			get:LELB			get:LFRA			get:LWRA			get:LWRB			get:LFIN			get:RSHO			get:RUPA			get:RELB			get:RFRA			get:RWRA			get:RWRB			get:RFIN			get:LASI			get:RASI			get:LPSI			get:RPSI			
		X1	Y1	Z1	X2	Y2	Z2	X3	Y3	Z3	X4	Y4	Z4	X5	Y5	Z5	X6	Y6	Z6	X7	Y7	Z7	X8	Y8	Z8	X9	Y9	Z9	X10	Y10	Z10	X11	Y11	Z11	X12	Y12	Z12	X13	Y13	Z13	X14	Y14	Z14	X15	Y15	Z15	X16	Y16	Z16	X17	Y17	Z17	X18	Y18	Z18	X19	Y19	Z19	X20	Y20	Z20	X21	Y21	Z21	X22	Y22	Z22	X23	Y23	Z23	X24	Y24	Z24	X25	Y25	Z25	X26	Y26	Z26	X27	Y27	Z27	
629	6.28	49.16291	1539.3907	-64.559166	-96.109848	1526.636	-80.940704	62.213634	1542.4069	-201.65265	-88.005203	1523.9705	-214.66351	-21.427139	1329.0665	-250.17267	-33.831589	1116.3452	-267.62341	35.768322	1244.9771	-59.115768	32.654835	1092.302	-12.490234	-132.84511	1270.8053	-239.06812	156.23145	1327.9642	-216.6134	209.98006	1114.6886	-169.57964	218.35896	996.8725	-231.1273	226.14685	945.24927	-148.86238	193.16034	779.21216	-102.80114	249.69629	776.2207	-152.49664	240.50325	704.11005	-115.43735	-92.281609	1358.4387	-131.19896	-112.32472	1345.8358	-43.085011	-47.705841	1274.5724	129.28047	95.579735	1288.1901	213.60576	151.37263	1261.145	295.56042	86.931648	1295.5143	316.52023	170.32774	1290.1748	362.39481	143.8028	891.8833	-87.489563	-148.07904	909.81488	-56.262131	30.743755	928.01056	-260.45975	-56.598728	928.20483	-255.56371
630	6.29	48.944763	1539.4757	-64.648483	-96.349236	1526.391	-80.312263	61.330341	1542.5237	-201.85715	-88.932701	1523.7379	-213.87213	-22.625519	1329.2737	-249.85132	-35.293377	1116.5117	-267.12607	36.049465	1244.7269	-59.428581	33.448498	1092.3308	-12.717155	-134.10016	1271.1938	-237.29451	155.39413	1327.9718	-217.9169	210.0775	1114.8156	-171.10973	217.9839	996.90698	-232.38531	226.39433	945.48315	-150.13832	194.0838	779.4881	-103.49622	250.19962	776.49048	-153.76031	241.42039	704.38745	-116.36376	-91.981079	1358.9152	-130.15306	-109.88258	1346.4803	-42.153645	-40.796326	1274.8657	128.77838	104.79781	1288.499	209.02164	163.12003	1261.6821	289.3248	99.366409	1296.182	311.96078	183.9821	1290.7201	355.5329	143.90736	891.91327	-88.148491	-147.784	909.82343	-55.366096	29.859911	927.97278	-260.46552	-57.375198	928.3689	-255.51761
631	6.3	48.751774	1539.5397	-64.704239	-96.60154	1526.1528	-79.694466	60.502037	1542.6642	-201.96249	-89.771034	1523.5724	-213.34483	-23.750017	1329.4655	-249.36865	-36.686649	1116.7837	-266.74503	36.836422	1244.7546	-59.535244	34.246086	1092.3429	-12.880813	-135.3441	1271.7087	-235.68585	154.61295	1327.9369	-219.06128	209.76862	1114.9291	-172.57417	217.5354	996.90588	-233.8485	226.64537	945.63483	-151.4341	195.00105	779.67566	-104.25507	250.74471	776.68085	-154.91417	242.38701	704.6615	-117.29428	-91.615135	1359.4678	-128.97421	-107.63154	1346.9069	-41.035706	-34.273052	1275.5389	128.15958	113.76846	1288.8358	204.16824	174.3606	1262.1394	282.77512	111.33424	1296.8005	307.31229	197.10193	1291.2642	348.34232	143.94157	891.95343	-88.81189	-147.5779	909.83728	-54.562252	29.050003	927.95056	-260.53293	-58.360012	928.45117	-254.774
632	6.31	48.560154	1539.6006	-64.726624	-96.845703	1525.9132	-79.135689	59.632034	1542.8315	-202.07489	-90.56369	1523.4034	-212.79082	-24.818142	1329.6172	-248.92615	-38.068005	1117.0002	-266.18082	37.526249	1244.7943	-59.72641	35.076168	1092.3535	-13.012835	-136.44646	1272.1548	-234.06288	153.82237	1327.8545	-220.29123	209.53729	1114.9521	-173.9344	216.97839	996.83813	-235.11392	226.85379	945.7655	-152.72313	195.78128	779.80865	-104.98009	251.23367	776.81219	-156.0493	243.26703	704.88672	-118.25716	-90.89534	1360.1313	-127.40415	-105.67023	1347.2926	-39.957203	-27.919937	1275.91	127.16476	122.2921	1289.0581	199.19087	185.08772	1262.5162	276.07831	122.84249	1297.2986	302.29715	209.65385	1291.8136	340.95627	144.01773	892.00696	-89.419937	-147.33307	909.88409	-53.757046	28.245775	927.94293	-260.57822	-59.173294	928.3609	-254.34375
633	6.32	48.385056	1539.6438	-64.725319	-97.063446	1525.6786	-78.500252	58.868076	1542.9777	-202.12297	-91.395683	1523.2054	-212.08963	-25.920181	1329.7209	-248.45938	-39.398678	1117.1553	-265.59503	38.23835	1244.8275	-59.917004	35.853256	1092.3662	-13.127135	-137.57454	1272.5813	-232.41684	153.0567	1327.7633	-221.37172	209.26164	1114.9366	-175.33017	216.47141	996.74249	-236.43919	227.02675	945.79291	-153.88509	196.61523	779.87	-105.79057	251.71193	776.89709	-157.39136	244.15668	705.04254	-119.29818	-90.914108	1360.5085	-126.61028	-103.69527	1347.7611	-38.876709	-21.765743	1276.2064	126.0307	130.52742	1289.3256	194.09601	195.42706	1262.9188	269.23361	133.82961	1297.6736	297.11337	221.63515	1292.3495	333.39734	144.05092	892.00983	-90.06459	-147.07062	909.91046	-53.009117	27.505953	927.99335	-260.6879	-59.686157	928.54541	-254.70903
634	6.33	48.249561	1539.7159	-64.727211	-97.31144	1525.4099	-77.901047	58.097115	1543.1129	-202.13794	-92.139397	1523.1011	-211.70178	-26.939989	1329.8317	-248.03764	-40.6549	1117.3533	-265.15445	38.918274	1244.843	-60.021343	36.535591	1092.3462	-13.231441	-138.66553	1273.0137	-230.89241	152.33167	1327.6233	-222.46429	209.01799	1114.9025	-176.66377	215.95734	996.59998	-237.62421	227.16608	945.81122	-155.15073	197.37186	779.8924	-106.60793	252.04543	776.93988	-158.54509	245.01031	705.15753	-120.35208	-90.510323	1361.053	-125.37643	-101.50224	1348.0105	-37.959927	-16.08761	1276.7507	125.4459	138.29778	1289.6532	189.04248	205.28781	1263.3778	262.41125	144.36777	1298.0435	291.94849	233.13	1292.8531	325.87662	144.03188	892.05273	-90.674416	-146.83351	909.92865	-52.273525	26.707817	927.97675	-260.76468	-60.562462	928.39624	-253.6745
635	6.34	48.075169	1539.7234	-64.692978	-97.471161	1525.175	-77.261642	57.365681	1543.2397	-202.1349	-92.892929	1522.9324	-211.12419	-27.8932	1329.9786	-247.70483	-41.866257	1117.5643	-264.6059	39.608505	1244.8164	-60.124123	37.319355	1092.292	-13.294361	-139.98335	1273.5825	-229.73343	151.64467	1327.51	-223.45311	208.69075	1114.8341	-177.96335	215.39963	996.48547	-238.91711	227.2888	945.78345	-156.28471	198.07819	779.8761	-107.48634	252.40338	776.94672	-159.90869	245.76756	705.25262	-121.43835	-90.131416	1361.4517	-124.42912	-99.483597	1348.3948	-36.950127	-10.707674	1277.3627	125.20033	145.75232	1290.0239	183.93039	214.71797	1263.9402	255.57733	154.43271	1298.34	286.65399	244.08113	1293.394	318.36594	144.05199	892.08881	-91.240486	-146.64261	909.9552	-51.541489	25.947235	927.97363	-260.81158	-61.27515	928.35791	-253.25247
636	6.35	47.950352	1539.7742	-64.662895	-97.622162	1524.8998	-76.640541	56.591694	1543.3647	-202.14651	-93.620422	1522.7852	-210.54134	-28.79512	1330.1328	-247.28683	-43.038242	1117.7942	-264.11899	40.212715	1244.8423	-60.312321	37.990242	1092.2776	-13.401846	-140.93274	1274.033	-228.28517	150.9856	1327.3868	-224.3958	208.26044	1114.6064	-179.0807	214.85884	996.29669	-240.05197	227.33856	945.73938	-157.56229	198.65211	779.80615	-108.34588	252.5379	776.91815	-161.18283	246.45715	705.26147	-122.60468	-89.679756	1361.8278	-123.2999	-97.361763	1348.5441	-36.344608	-4.6728158	1277.6649	122.98484	152.7876	1290.4321	178.91808	223.70065	1264.5176	248.74741	164.08635	1298.7495	281.3613	254.55356	1293.9021	310.97226	144.04749	892.09778	-91.719788	-146.38295	909.94556	-50.829823	25.266884	927.99054	-260.87589	-61.905903	928.42682	-253.07536
637	6.36	47.831738	1539.7748	-64.602661	-97.800621	1524.6316	-75.993851	55.915176	1543.4863	-202.13025	-94.304062	1522.6041	-209.87199	-29.701525	1330.2795	-246.87764	-44.128567	1117.9969	-263.60513	40.817791	1244.8025	-60.411968	38.550827	1092.2468	-13.55423	-141.82939	1274.412	-226.61159	150.33589	1327.2419	-225.33238	207.96208	1114.3859	-180.23578	214.27444	996.17279	-241.09419	227.40637	945.65222	-158.65468	199.26982	779.69788	-109.21864	252.73164	776.85156	-162.51237	247.04544	705.24335	-123.75676	-89.333977	1362.1801	-121.69749	-95.467102	1348.8842	-35.520649	0.71066421	1277.8994	121.70181	159.59111	1290.9108	173.90698	232.30243	1265.0541	241.94449	173.31819	1299.0464	276.05313	264.59094	1294.335	303.42911	144.00821	892.08026	-92.242401	-146.19022	909.94855	-50.105999	24.623337	927.91583	-260.82977	-62.547199	928.39941	-252.71822
638	6.37	47.662273	1539.7761	-64.509888	-97.973808	1524.3754	-75.364609	55.241291	1543.5853	-202.04335	-94.936432	1522.5116	-209.39508	-30.603621	1330.3816	-246.42743	-46.144764	1118.7418	-264.33591	41.33387	1244.745	-60.594608	39.206913	1092.2238	-13.651441	-142.3362	1274.5228	-224.76845	149.72809	1327.1022	-226.21309	207.6906	1114.2645	-181.27145	213.71454	996.10266	-242.18977	227.42934	945.55066	-159.80037	199.69109	779.51904	-110.15214	252.90176	776.7478	-163.68604	247.5051	705.17419	-125.02867	-89.710426	1362.8555	-117.38324	-93.756149	1349.339	-34.543358	5.8467693	1278.0428	120.30055	165.92899	1291.2662	168.8439	240.36823	1265.6096	235.12837	182.10327	1299.3771	270.60089	274.12158	1294.7772	295.95898	143.92096	892.46558	-92.401054	-145.99518	909.92188	-49.470219	23.998587	928.38361	-261.66833	-63.202969	928.37927	-252.3427
639	6.38	47.49081	1539.7864	-64.410805	-98.150467	1524.1353	-74.770844	54.600483	1543.7645	-201.96802	-95.566299	1522.3729	-208.75912	-31.441715	1330.4651	-246.07428	-47.113358	1118.9056	-263.90582	41.752541	1244.64	-60.773483	39.868595	1092.1426	-13.739151	-143.17308	1275.0947	-223.58286	149.13123	1326.9631	-227.03185	207.32362	1114.1879	-182.30453	213.10181	995.92706	-243.26071	227.39313	945.43298	-160.85594	200.10013	779.3302	-111.11012	252.89867	776.61652	-165.03607	247.89771	705.03284	-126.23769	-88.788162	1362.8121	-118.99381	-92.020355	1349.5681	-33.919788	10.693838	1278.093	118.9631	172.07001	1291.8826	163.93744	247.91479	1266.1117	228.37119	190.32979	1299.6614	265.36627	282.81271	1295.1344	288.6951	143.93138	892.19733	-93.094582	-145.83504	909.88904	-48.866669	23.385229	928.3717	-261.68735	-63.721733	928.38275	-252.02322
640	6.39	47.350677	1539.7855	-64.338699	-98.266678	1523.8828	-74.162621	53.976635	1543.9293	-201.91002	-96.396027	1522.0001	-206.19853	-32.271622	1330.5391	-245.67342	-48.060871	1119.0126	-263.4491	42.182262	1244.5554	-61.038551	40.405594	1092.0632	-13.86299	-143.83392	1275.0884	-221.80109	148.53941	1326.7943	-227.92354	207.10649	1114.2078	-183.26402	212.57161	995.7843	-244.12489	227.36046	945.29254	-161.77715	200.35768	779.10376	-112.04163	252.99525	776.45428	-166.24092	248.16896	704.83032	-127.51044	-88.528748	1363.0719	-118.08546	-90.21167	1349.9333	-33.154377	15.215724	1278.1733	117.5473	177.33585	1292.2629	159.35431	254.85158	1266.7281	221.7179	197.97997	1299.8324	260.1864	291.13293	1295.7538	281.18378	143.871	892.26697	-93.561737	-145.67198	909.88385	-48.205318	22.832924	928.32123	-261.57776	-64.256248	928.35596	-251.64771
641	6.4	47.230141	1539.7769	-64.231796	-98.430992	1523.6497	-73.635994	53.399086	1544.0985	-201.84251	-96.96653	1521.9181	-205.7702	-33.006073	1330.616	-245.33504	-48.989063	1119.1106	-262.97092	42.600082	1244.3727	-61.214302	40.93742	1091.9976	-13.988952	-144.49382	1275.2621	-220.33617	147.97769	1326.6162	-228.67979	206.89902	1114.1305	-184.07729	212.03368	995.6626	-245.00841	227.30095	945.14392	-162.75209	200.62326	778.8175	-113.01427	252.99481	776.28687	-167.44254	248.30432	704.56799	-128.76324	-87.947105	1363.3296	-118.46332	-88.570351	1350.1327	-32.539127	19.401018	1278.2268	116.2404	182.23148	1292.7258	154.86499	261.26859	1267.377	215.38094	205.02084	1299.964	255.29524	298.67657	1296.3606	274.23764	143.89198	892.30908	-93.931358	-145.46339	909.85486	-47.54248	22.286526	928.35553	-261.57462	-64.796097	928.34229	-251.3297
642	6.41	47.114429	1539.7771	-64.11393	-98.533348	1523.4004	-73.064484	52.836254	1544.2853	-201.78917	-97.689682	1521.6986	-204.92041	-33.739529	1330.5953	-244.86839	-49.861786	1119.2158	-262.54504	43.039127	1244.2521	-61.47768	41.563324	1091.8794	-14.075841	-145.12694	1275.3796	-219.03546	147.42976	1326.4314	-229.40529	206.64479	1114.0159	-184.88312	211.61723	995.50287	-245.77122	227.19623	944.9693	-163.60359	200.7795	778.49121	-113.90108	252.94576	776.10162	-168.58228	248.28519	704.21582	-130.00903	-87.623665	1363.6154	-117.20052	-87.089455	1350.3353	-31.907234	23.277102	1278.3318	114.94318	186.67058	1293.1306	150.57697	267.12335	1268.0396	209.47165	211.57651	1300.0353	250.82817	305.51846	1297.0043	267.59863	143.88626	892.40057	-94.324554	-145.24893	909.80499	-46.912273	21.739996	928.43683	-261.67322	-65.240517	928.32416	-250.91093
